<?xml version="1.0"?>
<svg xmlns="http://www.w3.org/2000/svg" height="512px" viewBox="-28 0 480 480" width="512px" class=""><g><path d="m416 360c0 61.855469-50.144531 112-112 112s-112-50.144531-112-112 50.144531-112 112-112 112 50.144531 112 112zm0 0" fill="#78b9eb" data-original="#78B9EB" class="" style="fill:#FCFDFD" data-old_color="#F8F9FB"/><path d="m264 104v-96.03125l96.03125 96.03125zm0 0" fill="#78b9eb" data-original="#78B9EB" class="" style="fill:#FCFDFD" data-old_color="#F8F9FB"/><g fill="#1a6fb0"><path d="m368 258.640625v-154.640625c0-.160156-.078125-.320312-.078125-.480469-.050781-.707031-.183594-1.40625-.402344-2.078125-.070312-.253906-.179687-.496094-.320312-.722656-.382813-.871094-.894531-1.679688-1.519531-2.398438l-96-96c-.71875-.625-1.527344-1.136718-2.398438-1.519531-.226562-.140625-.46875-.25-.722656-.320312-.683594-.179688-1.378906-.3125-2.078125-.402344-.160157 0-.320313-.078125-.480469-.078125h-256c-4.417969 0-8 3.582031-8 8v464c0 4.417969 3.582031 8 8 8h352c4.417969 0 8-3.582031 8-8v-10.640625c34.851562-21.910156 56.003906-60.191406 56.003906-101.359375s-21.152344-79.449219-56.003906-101.359375zm-96-231.359375 68.71875 68.71875h-68.71875zm-256 436.71875v-448h240v88c0 4.417969 3.582031 8 8 8h88v138.078125c-15.125-6.660156-31.472656-10.09375-48-10.078125-54.382812-.042969-101.984375 36.519531-115.964844 89.074219-13.984375 52.554687 9.152344 107.9375 56.363282 134.925781zm288 0c-57.4375 0-104-46.5625-104-104s46.5625-104 104-104 104 46.5625 104 104c-.054688 57.414062-46.585938 103.945312-104 104zm0 0" data-original="#000000" class="active-path" style="fill:#738797" data-old_color="#923939"/><path d="m312 352v-72h-16v72h-72v16h72v64h16v-64h72v-16zm0 0" data-original="#000000" class="active-path" style="fill:#738797" data-old_color="#923939"/></g></g> </svg>
